<svg width="30" height="31" viewBox="0 0 30 31" fill="none" xmlns="http://www.w3.org/2000/svg">
<g clip-path="url(#clip0_3948_7811)">
<path d="M22.6829 15.449C24.9504 13.3648 33.2476 3.55583 27.0321 0.86899C20.8164 -1.81785 19.3559 10.9464 19.3911 14.026L22.6829 15.449Z" fill="#FFAACB"/>
<path d="M7.43568 15.449C5.16838 13.3648 -3.12905 3.55583 3.08647 0.86899C9.30221 -1.81785 10.7627 10.9464 10.7275 14.026L7.43568 15.449Z" fill="#FFAACB"/>
<path d="M5.96606 13.9131C6.55429 14.5823 7.07248 15.1147 7.43571 15.4486L10.7275 14.0255C10.735 13.3617 10.673 12.2477 10.5091 10.9355C9.06146 11.4755 7.72983 12.2759 6.58519 13.3107C6.36981 13.5054 6.16336 13.7064 5.96606 13.9131Z" fill="#FF82B3"/>
<path d="M23.5334 13.3107C22.3888 12.2759 21.0571 11.4755 19.6097 10.9355C19.4456 12.2477 19.3836 13.3617 19.3911 14.0255L22.6829 15.4486C23.0461 15.1147 23.5643 14.5823 24.1525 13.9131C23.9552 13.7064 23.7488 13.5054 23.5334 13.3107Z" fill="#FF82B3"/>
<path d="M20.9042 14.6803C20.9692 13.4483 21.145 11.8058 21.5005 10.2004C22.337 6.42228 23.5405 5.44358 23.8895 5.2337C24.6501 4.77616 25.8181 5.28153 26.006 6.14854C26.0921 6.54656 26.2038 8.09358 24.0246 11.2915C23.0988 12.6504 22.0228 13.9037 21.1697 14.7952L20.9042 14.6803Z" fill="#EBEBEB"/>
<path d="M9.21434 14.6803C9.14934 13.4483 8.97356 11.8058 8.6181 10.2004C7.78154 6.42228 6.57808 5.44358 6.22903 5.2337C5.46846 4.77616 4.30048 5.28153 4.11279 6.14854C4.0265 6.54656 3.91481 8.09358 6.09399 11.2915C7.01982 12.6504 8.09602 13.9037 8.94884 14.7952L9.21434 14.6803Z" fill="#EBEBEB"/>
<path d="M8.94881 14.7945L9.21431 14.6796C9.16922 13.825 9.07057 12.7723 8.89571 11.6719C8.3013 11.9967 7.73482 12.3702 7.20221 12.7902C7.81104 13.5558 8.42238 14.2443 8.94881 14.7945Z" fill="#D5D4DA"/>
<path d="M21.2228 11.6719C21.048 12.7723 20.9493 13.8247 20.9042 14.6796L21.1697 14.7945C21.6962 14.244 22.3075 13.5558 22.9161 12.7902C22.3835 12.3702 21.8172 11.9967 21.2228 11.6719Z" fill="#D5D4DA"/>
<path d="M25.326 21.2176C25.326 16.0914 20.7294 11.9355 15.0593 11.9355C9.38918 11.9355 4.79254 16.0914 4.79254 21.2176C4.79254 26.3441 9.38918 30.4999 15.0593 30.4999C20.7294 30.4999 25.326 26.3441 25.326 21.2176Z" fill="#FFAACB"/>
<path d="M16.5969 20.8281C17.5847 21.3713 18.2538 22.4218 18.2538 23.6285C18.2538 25.3927 16.8235 26.823 15.0593 26.823C13.295 26.823 11.8647 25.3927 11.8647 23.6285C11.8647 22.4218 12.5338 21.3713 13.5216 20.8281H16.5969Z" fill="#EBEBEB"/>
<path d="M19.8555 21.3506C19.6056 21.3506 19.4028 21.1481 19.4028 20.8979V19.9654C19.4028 19.7153 19.6056 19.5127 19.8555 19.5127C20.1054 19.5127 20.3082 19.7153 20.3082 19.9654V20.8979C20.3082 21.1481 20.1054 21.3506 19.8555 21.3506Z" fill="#4B5562"/>
<path d="M10.263 21.3506C10.0131 21.3506 9.8103 21.1481 9.8103 20.8979V19.9654C9.8103 19.7153 10.0131 19.5127 10.263 19.5127C10.513 19.5127 10.7158 19.7153 10.7158 19.9654V20.8979C10.7158 21.1481 10.513 21.3506 10.263 21.3506Z" fill="#4B5562"/>
<path d="M10.2953 22.7219H9.02524C8.7753 22.7219 8.57251 22.5193 8.57251 22.2691C8.57251 22.0192 8.7753 21.8164 9.02524 21.8164H10.2953C10.5455 21.8164 10.748 22.0192 10.748 22.2691C10.748 22.5193 10.5455 22.7219 10.2953 22.7219Z" fill="#FF82B3"/>
<path d="M21.0933 22.7219H19.8232C19.573 22.7219 19.3705 22.5193 19.3705 22.2691C19.3705 22.0192 19.573 21.8164 19.8232 21.8164H21.0933C21.3434 21.8164 21.546 22.0192 21.546 22.2691C21.546 22.5193 21.3434 22.7219 21.0933 22.7219Z" fill="#FF82B3"/>
<path d="M16.3653 22.8741C15.8947 22.8741 15.512 22.4914 15.512 22.0211C15.512 21.7709 15.3092 21.5684 15.0593 21.5684C14.8093 21.5684 14.6065 21.7709 14.6065 22.0211C14.6065 22.4914 14.2238 22.8741 13.7533 22.8741C13.5033 22.8741 13.3005 23.0769 13.3005 23.3269C13.3005 23.577 13.5033 23.7796 13.7533 23.7796C14.271 23.7796 14.7372 23.5546 15.0593 23.1975C15.3813 23.5546 15.8475 23.7796 16.3653 23.7796C16.6152 23.7796 16.818 23.577 16.818 23.3269C16.818 23.0769 16.6152 22.8741 16.3653 22.8741Z" fill="#4B5562"/>
<path d="M16.5969 20.8287C16.4216 21.5147 15.7995 22.0216 15.0593 22.0216C14.3191 22.0216 13.6972 21.5147 13.5217 20.8287C13.9774 20.5774 14.5017 20.4346 15.0593 20.4346C15.6169 20.4346 16.1412 20.5774 16.5969 20.8287Z" fill="#FF82B3"/>
<path d="M8.86666 15.2806C8.86666 15.2806 7.39266 20.2349 5.09995 16.5325C2.80724 12.8299 7.8994 13.7184 7.8994 13.7184L8.86666 15.2806Z" fill="#34B5E1"/>
<path d="M10.1949 14.4583C10.1949 14.4583 15.2872 15.3468 12.9945 11.6442C10.7018 7.94179 9.2276 12.8962 9.2276 12.8962L10.1949 14.4583Z" fill="#34B5E1"/>
<path d="M8.46381 13.0634L8.38988 13.1092C7.83667 13.4518 7.66593 14.1781 8.00856 14.7313C8.3512 15.2847 9.07744 15.4555 9.63065 15.1128L9.70458 15.0671C10.2578 14.7244 10.4285 13.9982 10.0859 13.445C9.74326 12.8915 9.01702 12.7208 8.46381 13.0634Z" fill="#5BD6FD"/>
</g>
<defs>
<clipPath id="clip0_3948_7811">
<rect width="30" height="30" fill="white" transform="translate(0 0.5)"/>
</clipPath>
</defs>
</svg>
