<?xml version="1.0"?><svg id="Layer_1" style="enable-background:new 0 0 256 256;" version="1.1" viewBox="0 0 256 256" xml:space="preserve" xmlns="http://www.w3.org/2000/svg" xmlns:xlink="http://www.w3.org/1999/xlink"><style type="text/css">
	.st0{fill:#4671C6;}
	.st1{fill:#E0EBFC;}
	.st2{fill:#F9A7A7;}
	.st3{fill:#FFEA92;}
	.st4{fill:#3762CC;}
	.st5{fill:#A4C9FF;}
	.st6{fill:#B9BEFC;}
	.st7{fill:#F9CFCF;}
	.st8{fill:#6BDDDD;}
	.st9{fill:#EAA97D;}
</style><g><g><g><circle class="st0" cx="148.609" cy="213.517" r="21.941"/></g></g><g><g><path class="st7" d="M148.609,225.884c-6.819,0-12.367-5.548-12.367-12.367c0-6.819,5.548-12.367,12.367-12.367     c6.818,0,12.366,5.548,12.366,12.367C160.975,220.336,155.428,225.884,148.609,225.884z"/></g></g><g><g><path class="st4" d="M148.609,237.458c-13.201,0-23.941-10.74-23.941-23.941s10.74-23.941,23.941-23.941     c13.201,0,23.94,10.74,23.94,23.941S161.81,237.458,148.609,237.458z M148.609,193.576c-10.996,0-19.941,8.945-19.941,19.941     s8.945,19.941,19.941,19.941c10.995,0,19.94-8.945,19.94-19.941S159.604,193.576,148.609,193.576z"/></g></g><g><g><circle class="st0" cx="56.136" cy="213.517" r="21.941"/></g></g><g><g><path class="st7" d="M56.136,225.884c-6.819,0-12.367-5.548-12.367-12.367c0-6.819,5.548-12.367,12.367-12.367     c6.818,0,12.366,5.548,12.366,12.367C68.502,220.336,62.955,225.884,56.136,225.884z"/></g></g><g><g><path class="st4" d="M56.136,237.458c-13.201,0-23.94-10.74-23.94-23.941s10.74-23.941,23.94-23.941     c13.201,0,23.941,10.74,23.941,23.941S69.337,237.458,56.136,237.458z M56.136,193.576c-10.995,0-19.94,8.945-19.94,19.941     s8.945,19.941,19.94,19.941c10.996,0,19.941-8.945,19.941-19.941S67.131,193.576,56.136,193.576z"/></g></g><g><g><path class="st5" d="M62.587,191.576v16.435c0,2.969-2.407,5.376-5.376,5.376h-1.544c-2.293,0-4.334-1.455-5.082-3.622     l-6.277-18.188H62.587z"/></g></g><g><g><path class="st5" d="M155.06,191.576v16.435c0,2.969-2.407,5.376-5.376,5.376h-1.544c-2.293,0-4.334-1.455-5.082-3.622     l-6.277-18.188H155.06z"/></g></g><g><g><path class="st4" d="M57.211,215.387h-1.544c-3.145,0-5.947-1.997-6.973-4.97l-6.276-18.189     c-0.211-0.611-0.113-1.287,0.262-1.813c0.375-0.527,0.982-0.839,1.628-0.839h18.279c1.104,0,2,0.896,2,2v16.435     C64.587,212.078,61.278,215.387,57.211,215.387z M47.114,193.576l5.361,15.536c0.47,1.36,1.752,2.275,3.192,2.275h1.544     c1.862,0,3.376-1.515,3.376-3.376v-14.435H47.114z"/></g></g><g><g><path class="st4" d="M149.684,215.387h-1.544c-3.145,0-5.947-1.998-6.973-4.97l-6.277-18.188     c-0.211-0.611-0.113-1.287,0.262-1.813c0.375-0.527,0.982-0.839,1.628-0.839h18.28c1.104,0,2,0.896,2,2v16.435     C157.061,212.078,153.751,215.387,149.684,215.387z M139.587,193.576l5.361,15.536c0.47,1.361,1.752,2.275,3.191,2.275h1.544     c1.862,0,3.376-1.515,3.376-3.376v-14.435H139.587z"/></g></g><g><g><path class="st2" d="M241.285,41.758h-39.316c-2.604,0-4.715-2.111-4.715-4.715V25.257c0-2.604,2.111-4.715,4.715-4.715h39.316     c2.604,0,4.715,2.111,4.715,4.715v11.787C246,39.647,243.889,41.758,241.285,41.758z"/></g></g><g><g><path class="st4" d="M241.285,43.758h-39.316c-3.703,0-6.715-3.012-6.715-6.715V25.257c0-3.703,3.012-6.715,6.715-6.715h39.316     c3.703,0,6.715,3.012,6.715,6.715v11.787C248,40.746,244.988,43.758,241.285,43.758z M201.969,22.542     c-1.497,0-2.715,1.218-2.715,2.715v11.787c0,1.497,1.218,2.715,2.715,2.715h39.316c1.497,0,2.715-1.218,2.715-2.715V25.257     c0-1.497-1.218-2.715-2.715-2.715H201.969z"/></g></g><g><g><path class="st5" d="M183.227,41.56c0.356-2.575,2.422-4.517,4.804-4.517h9.223V25.257h-9.223     c-8.238,0-15.323,6.315-16.481,14.689l-1.375,9.946h4.955c1.7,0,3.317,0.734,4.436,2.014c1.12,1.28,1.631,2.981,1.404,4.666     L183.227,41.56z"/></g></g><g><g><path class="st4" d="M180.975,58.573c-0.094,0-0.188-0.007-0.284-0.021c-1.088-0.155-1.847-1.158-1.7-2.247     c0.149-1.114-0.188-2.237-0.927-3.082c-0.74-0.847-1.808-1.332-2.931-1.332h-4.956c-0.578,0-1.128-0.25-1.508-0.686     s-0.553-1.015-0.473-1.588l1.375-9.946c1.293-9.358,9.23-16.416,18.461-16.416h9.223c1.104,0,2,0.896,2,2v11.787     c0,1.104-0.896,2-2,2h-9.223c-1.39,0-2.604,1.2-2.823,2.79c-0.001,0.008-0.002,0.016-0.003,0.023l-2.255,15.012     C182.802,57.86,181.949,58.573,180.975,58.573z M172.472,47.893h2.66c1.779,0,3.491,0.601,4.869,1.681l1.247-8.299     c0.497-3.553,3.411-6.231,6.784-6.231h7.223v-7.787h-7.223c-7.244,0-13.478,5.573-14.5,12.963L172.472,47.893z M183.228,41.56     h0.01H183.228z"/></g></g><g><g><path class="st5" d="M179.568,51.907c-1.119-1.28-2.736-2.014-4.436-2.014H20.195c-2.941,0-5.738,1.269-7.674,3.483     c-1.936,2.214-2.822,5.155-2.43,8.072l11.96,88.826c0.963,7.161,7.14,12.562,14.366,12.562H54.25h3.56h2.404h70.596h2.404h5.194     h15.582c7.226,0,13.401-5.4,14.365-12.561l12.617-93.701C181.199,54.887,180.688,53.187,179.568,51.907z M22.015,61.679h22.782     l3.394,38.791H27.238L22.015,61.679z M36.418,151.048c-1.35,0-2.505-1.009-2.685-2.347l-4.907-36.444h20.397l3.394,38.791H36.418     z M89.62,151.048H64.449l-3.394-38.791H89.62V151.048z M89.62,100.47H60.024L56.63,61.679h32.99V100.47z M126.577,151.048     h-25.171v-38.791h28.564L126.577,151.048z M131.002,100.47h-29.595V61.679h32.989L131.002,100.47z M156.675,148.701     c-0.181,1.338-1.334,2.347-2.684,2.347H138.41l3.393-38.791h19.779L156.675,148.701z M163.169,100.47h-20.335l3.394-38.791     h22.164L163.169,100.47z"/></g></g><g><g><path class="st5" d="M161.332,162.835c4.36,0,7.906,3.803,7.906,8.477c0,4.674-3.546,8.478-7.906,8.478H28.896     c-3.255,0-5.893,2.638-5.893,5.893c0,3.255,2.638,5.893,5.893,5.893h132.437c10.859,0,19.693-9.09,19.693-20.264     c0-8.788-5.475-16.267-13.092-19.068c-1.73,6.155-7.398,10.59-13.942,10.59L161.332,162.835z"/></g></g><g><g><path class="st4" d="M153.991,164.834H36.417c-8.224,0-15.251-6.146-16.348-14.295L8.109,61.714     c-0.47-3.488,0.59-7.007,2.906-9.656c2.316-2.647,5.662-4.166,9.179-4.166h154.938c2.277,0,4.442,0.983,5.941,2.698     c1.499,1.713,2.185,3.99,1.881,6.249l-12.617,93.702C169.242,158.689,162.214,164.834,153.991,164.834z M20.195,51.893     c-2.364,0-4.612,1.021-6.168,2.8c-1.557,1.779-2.269,4.145-1.953,6.488l11.96,88.825c0.831,6.173,6.154,10.829,12.384,10.829     h117.574c6.229,0,11.552-4.655,12.383-10.828l12.617-93.702c0.149-1.114-0.188-2.237-0.927-3.081c0,0,0,0,0-0.001     c-0.74-0.846-1.808-1.331-2.931-1.331H20.195z M153.991,153.048H138.41c-0.561,0-1.096-0.235-1.475-0.649     c-0.379-0.413-0.567-0.967-0.518-1.525l3.394-38.791c0.09-1.033,0.955-1.826,1.992-1.826h19.779c0.577,0,1.126,0.249,1.505,0.684     c0.38,0.434,0.554,1.011,0.477,1.583l-4.907,36.444v0C158.343,151.294,156.337,153.048,153.991,153.048z M140.592,149.048h13.399     c0.347,0,0.656-0.27,0.702-0.614l4.602-34.177h-15.659L140.592,149.048z M156.675,148.701h0.01H156.675z M126.577,153.048h-25.17     c-1.104,0-2-0.896-2-2v-38.791c0-1.104,0.896-2,2-2h28.564c0.561,0,1.096,0.235,1.475,0.649c0.379,0.413,0.567,0.967,0.518,1.525     l-3.394,38.791C128.479,152.255,127.614,153.048,126.577,153.048z M103.406,149.048h21.338l3.043-34.791h-24.381V149.048z      M89.62,153.048H64.449c-1.037,0-1.902-0.792-1.992-1.826l-3.394-38.791c-0.049-0.559,0.139-1.112,0.518-1.525     s0.914-0.649,1.475-0.649H89.62c1.104,0,2,0.896,2,2v38.791C91.62,152.152,90.724,153.048,89.62,153.048z M66.281,149.048H87.62     v-34.791H63.237L66.281,149.048z M52.616,153.048H36.417c-2.347,0-4.353-1.754-4.667-4.08l-4.907-36.444     c-0.077-0.572,0.097-1.149,0.477-1.583c0.379-0.435,0.928-0.684,1.505-0.684h20.397c1.037,0,1.902,0.792,1.992,1.826     l3.394,38.791c0.049,0.559-0.139,1.112-0.518,1.525C53.712,152.813,53.177,153.048,52.616,153.048z M31.112,114.257l4.602,34.177     c0.046,0.344,0.355,0.614,0.703,0.614h14.016l-3.044-34.791H31.112z M163.169,102.471h-20.335c-0.561,0-1.096-0.235-1.475-0.649     c-0.379-0.413-0.567-0.967-0.518-1.525l3.394-38.792c0.09-1.033,0.955-1.826,1.992-1.826h22.164c0.577,0,1.126,0.249,1.506,0.684     c0.379,0.434,0.553,1.011,0.476,1.583l-5.223,38.792C165.018,101.73,164.17,102.471,163.169,102.471z M145.017,98.471h16.403     l4.685-34.792H148.06L145.017,98.471z M131.001,102.471h-29.595c-1.104,0-2-0.896-2-2V61.679c0-1.104,0.896-2,2-2h32.989     c0.561,0,1.096,0.235,1.475,0.649c0.379,0.413,0.566,0.967,0.518,1.525l-3.394,38.792     C132.903,101.678,132.039,102.471,131.001,102.471z M103.406,98.471h25.763l3.043-34.792h-28.806V98.471z M89.62,102.471H60.023     c-1.037,0-1.902-0.792-1.992-1.826l-3.394-38.792c-0.049-0.559,0.139-1.112,0.518-1.525c0.379-0.414,0.914-0.649,1.475-0.649     h32.99c1.104,0,2,0.896,2,2v38.792C91.62,101.575,90.724,102.471,89.62,102.471z M61.856,98.471H87.62V63.679H58.812     L61.856,98.471z M48.191,102.471H27.238c-1.001,0-1.849-0.741-1.982-1.733l-5.223-38.792c-0.077-0.572,0.097-1.149,0.477-1.583     c0.379-0.435,0.928-0.684,1.505-0.684h22.782c1.037,0,1.902,0.792,1.992,1.826l3.394,38.792c0.049,0.559-0.139,1.112-0.518,1.525     C49.287,102.235,48.751,102.471,48.191,102.471z M28.986,98.471h17.022l-3.044-34.792H24.302L28.986,98.471z"/></g></g><g><g><path class="st4" d="M161.333,193.576H28.896c-4.352,0-7.893-3.541-7.893-7.893s3.541-7.893,7.893-7.893h132.437     c3.257,0,5.906-2.906,5.906-6.478s-2.649-6.478-5.906-6.478l0,0l-7.341,0c-1.104,0-2-0.896-2-2s0.896-2,2-2     c5.564,0,10.506-3.755,12.017-9.131c0.151-0.537,0.519-0.986,1.016-1.24c0.497-0.254,1.077-0.289,1.6-0.096     c8.614,3.168,14.401,11.585,14.401,20.945C183.025,183.589,173.294,193.576,161.333,193.576z M28.896,181.79     c-2.146,0-3.893,1.747-3.893,3.893s1.747,3.893,3.893,3.893h132.437c9.756,0,17.693-8.193,17.693-18.264     c0-6.997-3.918-13.346-9.932-16.386c-1.104,2.522-2.809,4.69-4.911,6.351c4.077,1.298,7.056,5.306,7.056,10.036     c0,5.777-4.444,10.478-9.906,10.478H28.896z"/></g></g><g><g><circle class="st8" cx="179.461" cy="106.436" r="39.085"/></g></g><g><g><path class="st3" d="M179.461,135.521c-16.038,0-29.085-13.048-29.085-29.085s13.047-29.085,29.085-29.085     s29.085,13.048,29.085,29.085S195.499,135.521,179.461,135.521z"/></g></g><g><g><path class="st4" d="M179.461,147.521c-22.654,0-41.085-18.431-41.085-41.085c0-22.655,18.431-41.085,41.085-41.085     c22.655,0,41.085,18.431,41.085,41.085C220.546,129.09,202.116,147.521,179.461,147.521z M179.461,69.351     c-20.449,0-37.085,16.636-37.085,37.085c0,20.449,16.636,37.085,37.085,37.085c20.449,0,37.085-16.636,37.085-37.085     C216.546,85.987,199.91,69.351,179.461,69.351z"/></g></g><g><g><path class="st2" d="M196.649,112.563h-34.375c-1.105,0-2-0.895-2-2v-8.375c0-1.105,0.895-2,2-2h34.375c1.105,0,2,0.895,2,2     v8.375C198.649,111.667,197.753,112.563,196.649,112.563z"/></g></g></g></svg>