<svg viewBox="0 0 15 15" fill="none" xmlns="http://www.w3.org/2000/svg"><path d="M14.5 7.64a6.92 6.92 0 0 1-8.98 6.62c.28-.45.7-1.2.86-1.82.09-.3.42-1.64.42-1.64.23.44.9.8 1.6.8 2.09 0 3.6-1.92 3.6-4.3 0-2.28-1.88-4.01-4.28-4.01-2.98 0-4.57 2-4.57 4.19 0 1.03.53 2.28 1.4 2.7.13.06.22.03.24-.11 0-.08.14-.56.2-.78 0-.06 0-.14-.06-.2a2.7 2.7 0 0 1-.5-1.59c0-1.5 1.14-2.98 3.13-2.98 1.67 0 2.87 1.14 2.87 2.82 0 1.87-.95 3.15-2.18 3.15-.67 0-1.17-.56-1.03-1.23.2-.84.59-1.73.59-2.31 0-.53-.28-.98-.87-.98-.7 0-1.25.72-1.25 1.67 0 .62.2 1.04.2 1.04s-.68 2.9-.82 3.43a6.77 6.77 0 0 0-.03 1.98 6.92 6.92 0 1 1 9.46-6.45Z" fill="#646667"/></svg>