<svg viewBox="0 0 13 13" fill="none" xmlns="http://www.w3.org/2000/svg"><path d="M6.58 3.43a3.2 3.2 0 1 1 0 6.42 3.2 3.2 0 0 1 0-6.42Zm0 5.3c1.15 0 2.07-.92 2.07-2.09 0-1.14-.92-2.06-2.07-2.06-1.17 0-2.09.92-2.09 2.06 0 1.17.95 2.1 2.1 2.1Zm4.08-5.4c0 .41-.34.75-.76.75a.75.75 0 0 1-.75-.76.75.75 0 1 1 1.5 0Zm2.12.75a79.6 79.6 0 0 1 0 5.16c-.06 1-.28 1.87-1 2.62-.73.73-1.63.95-2.63 1a79.6 79.6 0 0 1-5.16 0c-1-.05-1.87-.27-2.62-1a3.81 3.81 0 0 1-1-2.62 79.6 79.6 0 0 1 0-5.16c.05-1 .27-1.9 1-2.63a3.81 3.81 0 0 1 2.62-1 79.6 79.6 0 0 1 5.16 0c1 .05 1.9.28 2.62 1 .73.73.95 1.62 1 2.63Zm-1.34 6.25c.33-.81.25-2.77.25-3.69 0-.89.08-2.84-.25-3.68a2.1 2.1 0 0 0-1.17-1.17c-.84-.34-2.8-.25-3.69-.25-.92 0-2.87-.09-3.68.25-.56.22-.98.64-1.2 1.17-.33.84-.25 2.79-.25 3.68 0 .92-.08 2.88.25 3.69.22.55.64.97 1.2 1.2.8.33 2.76.25 3.68.25.9 0 2.85.08 3.69-.25.53-.23.97-.65 1.17-1.2Z" fill="#646667"/></svg>