<svg viewBox="0 0 21 16" fill="none" xmlns="http://www.w3.org/2000/svg"><path d="M10.58 15.27c-.6 0-5.94-.06-7.45-.47a3.1 3.1 0 0 1-2.18-2.17c-.4-1.48-.37-4.34-.37-4.57 0-.23-.02-3.11.37-4.6v-.01a3.16 3.16 0 0 1 2.17-2.19h.01c1.5-.4 6.84-.44 7.45-.45.61 0 5.96.06 7.46.46a3.09 3.09 0 0 1 2.17 2.17 22 22 0 0 1 .37 4.64c0 .24.03 3.07-.37 4.56a3.1 3.1 0 0 1-2.17 2.18c-1.5.4-6.85.44-7.45.45Zm-8.12-11.42c-.35 1.32-.31 4.17-.31 4.2v.02a21 21 0 0 0 .31 4.16c.14.51.55.92 1.07 1.07 1.12.3 5.46.4 7.05.4 1.6 0 5.95-.1 7.05-.39.52-.14.93-.55 1.07-1.07.3-1.1.33-3.37.32-4.16v-.02a20.34 20.34 0 0 0-.32-4.2 1.52 1.52 0 0 0-1.07-1.08c-1.1-.3-5.46-.4-7.05-.4-1.59 0-5.94.1-7.05.39-.5.14-.93.56-1.07 1.08Zm6.13 7.35v-6.33l5.47 3.17-5.47 3.16Z" fill="#646667"/></svg>