<svg viewBox="0 0 15 13" fill="none" xmlns="http://www.w3.org/2000/svg"><path d="M13.25 3.74v.4c0 3.87-2.93 8.3-8.32 8.3-1.67 0-3.2-.47-4.49-1.3.22.02.45.05.7.05a5.9 5.9 0 0 0 3.63-1.25 2.92 2.92 0 0 1-2.74-2.04c.2.03.36.05.56.05.25 0 .53-.05.75-.1a2.93 2.93 0 0 1-2.34-2.88v-.03a3 3 0 0 0 1.34.36 2.88 2.88 0 0 1-1.31-2.42c0-.56.14-1.06.39-1.48a8.5 8.5 0 0 0 6.05 3.07 2.93 2.93 0 0 1 5-2.68c.64-.14 1.28-.4 1.84-.73-.23.7-.67 1.26-1.29 1.62a5.5 5.5 0 0 0 1.68-.45 6.2 6.2 0 0 1-1.45 1.51Z" fill="#646667"/></svg>