<svg viewBox="0 0 108 38" fill="none" xmlns="http://www.w3.org/2000/svg"><path d="M42.54 14.26a2 2 0 0 1 .8-1.21c.41-.27.99-.4 1.74-.4.82 0 1.44.18 1.84.55.4.37.6.87.6 1.5 0 .44-.1.81-.3 1.11-.2.3-.46.57-.78.78-.32.2-.68.38-1.08.53l-1.18.45c-.4.14-.8.29-1.16.46-.37.16-.68.37-.93.63-.23.23-.26.57-.08 1.03.2.45.52.96.93 1.53.44.57.94 1.18 1.51 1.84.57.65 1.11 1.31 1.61 1.98.52.66.96 1.3 1.31 1.94.35.62.53 1.19.53 1.7 0 1.22-.52 1.82-1.56 1.82h-3.04c-.56 0-.96-.15-1.21-.45-.23-.3-.35-.76-.35-1.36a7.8 7.8 0 0 0-.38-2.26c-.23-.84-.54-1.62-.9-2.34a7.42 7.42 0 0 0-1.24-1.79c-.43-.48-.85-.73-1.25-.73a.6.6 0 0 0-.5.23 1.7 1.7 0 0 0-.28.55 3 3 0 0 0-.13.66 7.23 7.23 0 0 0 .13 2.16 31.38 31.38 0 0 0 .7 2.34c.1.35.15.74.15 1.18 0 .6-.12 1.06-.38 1.36-.23.3-.62.45-1.18.45h-3.04c-1.04 0-1.56-.6-1.56-1.81 0-.57.06-1.13.18-1.69l.42-1.68c.15-.57.29-1.15.4-1.74a8.67 8.67 0 0 0 0-3.74c-.11-.6-.25-1.2-.4-1.76l-.42-1.69a7.98 7.98 0 0 1-.18-1.66c0-1.22.52-1.83 1.56-1.83h3.04c.56 0 .95.15 1.18.45.26.3.38.76.38 1.38 0 .56-.06 1.04-.17 1.46-.1.4-.23.79-.38 1.16-.14.35-.26.71-.38 1.08-.1.35-.15.76-.15 1.23 0 .44.13.66.38.66.13 0 .28-.05.45-.13l.55-.35a12.65 12.65 0 0 0 3.45-3.8c.33-.57.58-1.16.75-1.78Zm8.33 9.95c0-.45-.07-.85-.2-1.2a7.48 7.48 0 0 0-.4-.98c-.16-.32-.3-.64-.43-.96a3.11 3.11 0 0 1-.18-1.08c0-.4.16-.73.48-.98a3.7 3.7 0 0 1 1.2-.63c.47-.17.98-.29 1.51-.35.54-.07 1-.1 1.41-.1.55 0 .96.11 1.2.35.26.23.39.64.39 1.2 0 .4-.07.8-.2 1.16a30.87 30.87 0 0 1-.84 2.29 4.56 4.56 0 0 0 0 2.57c.14.4.28.8.43 1.18.15.37.29.74.4 1.1.14.37.2.76.2 1.16 0 .44-.12.8-.37 1.1-.25.3-.66.46-1.2.46h-3.03c-.55 0-.95-.15-1.2-.45-.25-.3-.38-.67-.38-1.1 0-.41.06-.8.18-1.17a30 30 0 0 1 .42-1.1c.15-.39.29-.78.4-1.18.14-.4.2-.83.2-1.29Zm-.73-9.33c0-.67.23-1.2.7-1.6.47-.42 1.1-.63 1.89-.63.8 0 1.44.2 1.9.62.5.4.74.94.74 1.61 0 .67-.24 1.21-.73 1.61-.47.4-1.1.6-1.91.6a2.8 2.8 0 0 1-1.89-.6 2 2 0 0 1-.7-1.6Zm22.52-1.56c0 .6-.08 1.22-.23 1.84-.13.62-.3 1.26-.48 1.91-.17.64-.32 1.3-.48 1.96a9.25 9.25 0 0 0-.22 2.04c0 .69.06 1.35.17 1.99l.43 1.88c.15.6.29 1.21.4 1.81.14.6.2 1.21.2 1.81 0 1.3-.51 1.94-1.55 1.94h-2.07a5.85 5.85 0 0 1-1.35-.15l-.33-.13a.81.81 0 0 0-.68.05l-.5.2c-.19.07-.43.13-.73.18-.29.07-.65.1-1.08.1-.96 0-1.84-.1-2.64-.3a5.1 5.1 0 0 1-2.1-1.06 5.07 5.07 0 0 1-1.37-2 8.6 8.6 0 0 1-.5-3.18c0-1.27.14-2.33.45-3.17.31-.83.75-1.5 1.3-2a4.8 4.8 0 0 1 1.99-1.06 9.94 9.94 0 0 1 4.17-.13c.46.1.82.21 1.09.33l.6.25c.12.05.18.02.18-.08 0-.25-.05-.54-.13-.88-.08-.33-.19-.68-.3-1.05-.1-.39-.2-.77-.28-1.16-.08-.4-.12-.8-.12-1.18 0-.5.15-.92.47-1.26a4.4 4.4 0 0 1 1.21-.83 7.87 7.87 0 0 1 2.92-.6c.55 0 .94.16 1.18.48.25.31.38.8.38 1.45Zm-5.28 9.99c0-.6-.05-1.17-.16-1.69a4.05 4.05 0 0 0-.45-1.35 2.28 2.28 0 0 0-2.09-1.26c-.77 0-1.31.46-1.63 1.38a12 12 0 0 0-.48 3.82c0 1.65.21 2.94.63 3.88.42.93 1.05 1.4 1.89 1.4.35 0 .67-.16.95-.47a4 4 0 0 0 .73-1.31c.2-.55.35-1.2.45-1.96.1-.76.16-1.57.16-2.44Zm8.27.9c0-.45-.07-.85-.2-1.2a7.47 7.47 0 0 0-.4-.98c-.16-.32-.3-.64-.44-.96a3.11 3.11 0 0 1-.17-1.08c0-.4.16-.73.48-.98a3.6 3.6 0 0 1 1.2-.63c.47-.17.98-.29 1.51-.35.54-.07 1-.1 1.41-.1.55 0 .96.11 1.2.35.26.23.38.64.38 1.2 0 .4-.06.8-.2 1.16-.11.37-.25.75-.4 1.13-.15.37-.3.76-.43 1.16a4.56 4.56 0 0 0 0 2.57c.14.4.28.8.43 1.18.15.37.29.74.4 1.1.14.37.2.76.2 1.16 0 .44-.12.8-.37 1.1-.25.3-.66.46-1.21.46h-3.02c-.55 0-.95-.15-1.2-.45-.26-.3-.38-.67-.38-1.1 0-.41.06-.8.17-1.17a30 30 0 0 1 .43-1.1c.15-.39.29-.78.4-1.18.14-.4.2-.83.2-1.29Zm-.73-9.33c0-.67.23-1.2.7-1.6.47-.42 1.1-.63 1.89-.63.8 0 1.44.2 1.9.62.5.4.74.94.74 1.61a2 2 0 0 1-.73 1.61c-.47.4-1.1.6-1.91.6a2.8 2.8 0 0 1-1.89-.6 2 2 0 0 1-.7-1.6Zm8.56 3.05c.22 0 .33-.06.33-.18 0-.13-.04-.31-.13-.53l-.3-.85a4.2 4.2 0 0 1-.15-1.16c0-.72.14-1.32.4-1.81a3.73 3.73 0 0 1 2.57-1.81 7.65 7.65 0 0 1 3.92.1 4.5 4.5 0 0 1 1.61.78 3 3 0 0 1 .96 1.2c.2.48.3.98.3 1.52 0 .43-.07.78-.2 1.05a1.53 1.53 0 0 1-1.16.93c-.23.05-.48.08-.73.08a2.3 2.3 0 0 1-1.6-.53c-.38-.35-.56-.96-.56-1.81 0-.25 0-.5.02-.76s0-.5-.05-.72a.95.95 0 0 0-.25-.56c-.12-.15-.32-.22-.6-.22-.2 0-.36.13-.48.4-.1.25-.16.58-.18.98a8.63 8.63 0 0 0 .4 2.54c.14.38.3.71.48.98.19.25.4.38.63.38h1c.26 0 .44.06.56.2.14.13.2.27.2.43a.6.6 0 0 1-.2.42c-.12.14-.3.2-.55.2h-.6a.75.75 0 0 0-.56.2c-.12.14-.2.3-.25.5-.05.2-.08.4-.1.61v.58c0 .69.06 1.35.18 1.99a366 366 0 0 0 .8 3.7c.14.6.2 1.2.2 1.8 0 .66-.12 1.14-.38 1.46-.23.32-.62.48-1.18.48h-3.04c-1.04 0-1.56-.65-1.56-1.94 0-.6.06-1.2.18-1.8.13-.61.27-1.21.42-1.82.16-.62.29-1.25.4-1.88a9.27 9.27 0 0 0 .08-3.32c-.08-.37-.36-.56-.83-.56h-.55c-.25 0-.45-.06-.58-.2a.64.64 0 0 1-.18-.42c0-.16.06-.3.18-.43.14-.14.33-.2.58-.2h.55Zm17.4 12.57-.15 1.4a8.96 8.96 0 0 1-.78 2.95 4.1 4.1 0 0 1-2.46 2.09 6.6 6.6 0 0 1-2.24.32c-.54 0-.97-.07-1.3-.22a2.1 2.1 0 0 1-.81-.6 2.51 2.51 0 0 1-.4-.86c-.07-.3-.1-.6-.1-.9 0-.22.03-.47.1-.73.06-.27.18-.52.35-.73a2.24 2.24 0 0 1 1.91-.78h1.66a7.5 7.5 0 0 0 1.46-.13c.43-.08.78-.23 1.05-.43.27-.2.4-.5.4-.9 0-.2-.05-.33-.17-.38-.1-.03-.25-.05-.43-.05a2.6 2.6 0 0 1-1.89-.65c-.45-.46-.8-1-1.08-1.64-.27-.64-.5-1.3-.68-1.98a9.02 9.02 0 0 0-.62-1.84c-.22-.45-.46-.9-.7-1.33a17.7 17.7 0 0 1-1.27-2.69 4.2 4.2 0 0 1-.22-1.34c0-.77.37-1.15 1.1-1.15h3.07c.57 0 .96.1 1.16.32.2.22.3.55.3.98a17.48 17.48 0 0 0-.03 2.92 7.74 7.74 0 0 0 .75 2.82c.23.45.45.84.66 1.18.22.33.42.6.6.78.2.18.35.28.44.28.08 0 .22-.15.42-.43a18.5 18.5 0 0 0 1.71-3.42 5.73 5.73 0 0 0 .03-3.6 1.9 1.9 0 0 1-.1-.53c0-.43.1-.76.3-.98.2-.21.58-.32 1.16-.32h1c.74 0 1.1.38 1.1 1.15 0 .44-.09.88-.27 1.34a19.4 19.4 0 0 1-1.5 2.7c-.3.42-.54.87-.76 1.32-.27.55-.56 1.1-.86 1.63l-.85 1.56c-.25.5-.48 1-.68 1.49-.2.47-.33.93-.38 1.38Z" fill="#9F86D9"/><g clip-path="url(#a)"><path d="M22.68 15.45c2.27-2.09 10.57-11.9 4.35-14.58-6.21-2.69-7.67 10.08-7.64 13.16l3.3 1.42Zm-15.24 0c-2.27-2.09-10.57-11.9-4.35-14.58 6.21-2.69 7.67 10.08 7.64 13.16l-3.3 1.42Z" fill="#FFAACB"/><path d="M5.97 13.91c.58.67 1.1 1.2 1.47 1.54l3.29-1.42c0-.67-.06-1.78-.22-3.1a12.2 12.2 0 0 0-4.54 2.98Zm17.56-.6a12.2 12.2 0 0 0-3.92-2.37 24.88 24.88 0 0 0-.22 3.09l3.3 1.42c.36-.34.87-.87 1.46-1.54l-.62-.6Z" fill="#FF82B3"/><path d="M20.9 14.68c.07-1.23.25-2.87.6-4.48.84-3.78 2.04-4.76 2.39-4.97.76-.45 1.93.05 2.12.92.08.4.2 1.94-1.99 5.14-.92 1.36-2 2.61-2.85 3.5l-.27-.11Zm-11.69 0a28.44 28.44 0 0 0-.6-4.48c-.83-3.78-2.03-4.76-2.38-4.97-.76-.45-1.93.05-2.12.92-.08.4-.2 1.94 1.98 5.14.93 1.36 2 2.61 2.86 3.5l.26-.11Z" fill="#EBEBEB"/><path d="m8.95 14.8.26-.12c-.04-.86-.14-1.9-.31-3-.6.32-1.17.69-1.7 1.11.61.77 1.22 1.45 1.75 2Zm12.27-3.13a32.4 32.4 0 0 0-.32 3.01l.27.11c.53-.55 1.14-1.23 1.75-2-.54-.42-1.1-.8-1.7-1.12Z" fill="#D5D4DA"/><path d="M25.33 21.22c0-5.13-4.6-9.28-10.27-9.28s-10.27 4.15-10.27 9.28c0 5.12 4.6 9.28 10.27 9.28s10.27-4.16 10.27-9.28Z" fill="#FFAACB"/><path d="M16.6 20.83a3.2 3.2 0 1 1-3.08 0h3.08Z" fill="#EBEBEB"/><path d="M19.86 21.35a.45.45 0 0 1-.46-.45v-.93a.45.45 0 0 1 .9 0v.93c0 .25-.2.45-.44.45Zm-9.6 0a.45.45 0 0 1-.45-.45v-.93a.45.45 0 0 1 .9 0v.93c0 .25-.2.45-.45.45Z" fill="#4B5562"/><path d="M10.3 22.72h-1.27a.45.45 0 0 1 0-.9h1.27a.45.45 0 1 1 0 .9Zm10.8 0h-1.28a.45.45 0 1 1 0-.9h1.27a.45.45 0 0 1 0 .9Z" fill="#FF82B3"/><path d="M16.37 22.87a.85.85 0 0 1-.86-.85.45.45 0 1 0-.9 0c0 .47-.39.85-.86.85a.45.45 0 0 0 0 .91c.52 0 .99-.23 1.3-.58.33.35.8.58 1.32.58a.45.45 0 0 0 0-.9Z" fill="#4B5562"/><path d="M16.6 20.83a1.59 1.59 0 0 1-3.08 0 3.17 3.17 0 0 1 3.08 0Z" fill="#FF82B3"/><path d="M8.87 15.28s-1.48 4.95-3.77 1.25c-2.3-3.7 2.8-2.81 2.8-2.81l.97 1.56Zm1.33-.82s5.09.89 2.8-2.82c-2.3-3.7-3.77 1.26-3.77 1.26l.96 1.56Z" fill="#34B5E1"/><path d="m8.46 13.06-.07.05a1.18 1.18 0 0 0 1.24 2l.07-.04a1.18 1.18 0 0 0-1.24-2Z" fill="#5BD6FD"/></g><defs><clipPath id="a"><path fill="#fff" transform="translate(0 .5)" d="M0 0h30v30h-30z"/></clipPath></defs></svg>